<svg xmlns="http://www.w3.org/2000/svg" viewBox="0 0 787.5863 715.92664">
  <defs>
    <linearGradient
       x1="0.85355341" y1="-0.35355338"
       x2="0.14644662" y2="0.35355338"
       gradientUnits="userSpaceOnUse"
       gradientTransform="matrix(590.68945,0,0,-590.68945,1759.0497,1531.5797)"
       spreadMethod="pad"
       id="g259">
      <stop offset="0"        stop-color="#c28860"/>
      <stop offset="0.101005" stop-color="#e1a323"/>
      <stop offset="0.184924" stop-color="#d8985d"/>
      <stop offset="0.38593"  stop-color="#e6b03f"/>
      <stop offset="0.550754" stop-color="#efcb95"/>
      <stop offset="0.7799"   stop-color="#e0a944"/>
      <stop offset="1"        stop-color="#ddab73"/>
    </linearGradient>
  </defs>
  <!-- Dark rounded background -->
  <rect width="787.5863" height="715.92664" fill="#0a0a0a" rx="80"/>
  <!-- A mark — exact path from logo-a-v2.svg, transforms preserved -->
  <g transform="translate(-2345.3999,-1599.9307)">
    <path
       transform="matrix(1.3333333,0,0,-1.3333333,0,4000)"
       fill="url(#g259)" stroke="none"
       d="m 2062.266,1799.867 c -1.853,-0.303 -3.384,-1.002 -4.684,-1.76 v 0 c -1.226,-0.754 -2.248,-1.601 -3.013,-2.379 v 0 c -1.586,-1.596 -2.576,-3.075 -3.417,-4.464 v 0 c -0.829,-1.391 -1.475,-2.709 -2.048,-3.998 v 0 c -1.141,-2.572 -1.971,-5.016 -2.709,-7.434 v 0 c -2.841,-9.628 -4.322,-18.843 -5.533,-28.224 v 0 c -0.282,-2.384 -0.562,-4.608 -0.732,-7.31 v 0 c -0.142,-2.349 -0.268,-4.695 -0.349,-7.039 v 0 c -0.169,-4.688 -0.236,-9.368 -0.195,-14.036 v 0 c 0.089,-9.334 0.547,-18.626 1.306,-27.873 v 0 c 2.494,-30.161 8.026,-59.892 15.455,-88.957 v 0 c -3.151,-10.151 -6.661,-20.199 -10.493,-30.126 v 0 c -12.918,-33.343 -29.8,-65.201 -49.533,-95.21 v 0 c -19.633,-30.093 -42.145,-58.384 -66.848,-84.663 v 0 c -24.647,-26.344 -51.461,-50.73 -79.979,-73.015 v 0 c -14.238,-11.176 -28.939,-21.779 -44.032,-31.823 v 0 c -7.538,-5.035 -15.178,-9.927 -22.902,-14.692 v 0 c -7.745,-4.73 -15.584,-9.315 -23.51,-13.757 v 0 c 65.4,31.806 125.336,75.136 177.233,126.692 v 0 c 25.828,25.917 49.576,54.017 70.541,84.188 v 0 c 20.832,30.243 38.853,62.578 52.918,96.716 v 0 c 1.308,3.152 2.579,6.319 3.813,9.503 v 0 c 4.498,-15.427 9.372,-30.7 14.416,-45.87 v 0 c 5.725,-17.443 12.279,-34.751 19.556,-51.681 v 0 c 14.655,-33.831 32.336,-66.561 54.373,-96.451 v 0 c 2.687,-3.685 5.445,-7.319 8.274,-10.902 v 0 c -36.491,3.601 -73.233,3.305 -109.517,-0.525 v 0 c -36.259,-3.862 -72.243,-10.681 -106.87,-21.776 v 0 c 17.525,4.793 35.385,8.179 53.298,10.931 v 0 c 17.916,2.748 35.935,4.745 53.992,5.88 v 0 c 36.1,2.265 72.373,1.526 108.066,-3.297 v 0 c 3.113,-0.418 6.22,-0.866 9.324,-1.343 v 0 c 6.251,-7.363 12.796,-14.489 19.61,-21.363 v 0 c 13.267,-13.087 27.53,-25.298 43.16,-35.662 v 0 c 7.729,-5.301 15.891,-9.969 24.178,-14.368 v 0 c 4.208,-2.09 8.384,-4.237 12.725,-6.046 v 0 c 4.268,-1.964 8.67,-3.62 13.058,-5.298 v 0 c 8.733,-3.275 17.754,-6.117 27.249,-8.02 v 0 c 4.762,-0.927 9.657,-1.62 14.87,-1.672 v 0 c 2.606,-0.02 5.301,0.128 8.124,0.637 v 0 c 2.808,0.516 5.796,1.386 8.735,3.097 v 0 c 2.925,1.671 5.707,4.394 7.365,7.586 v 0 c 1.671,3.052 2.524,7.025 2.084,10.608 v 0 c -0.398,3.599 -1.727,6.642 -3.23,9.167 v 0 c -1.526,2.531 -3.269,4.654 -5.075,6.563 v 0 c -3.625,3.805 -7.515,6.837 -11.471,9.616 v 0 c -3.961,2.765 -8.014,5.229 -12.11,7.536 v 0 c -4.086,2.301 -8.266,4.443 -12.337,6.472 v 0 c -4.074,1.989 -8.237,4.14 -12.444,6.003 v 0 c -8.384,3.875 -16.913,7.423 -25.558,10.635 v 0 c -26.745,10.031 -54.484,17.064 -82.56,21.457 v 0 c -6.654,7.79 -12.981,15.878 -18.936,24.251 v 0 c -5.216,7.194 -10.084,14.652 -14.847,22.171 v 0 c -4.656,7.592 -9.242,15.232 -13.517,23.062 v 0 c -8.66,15.598 -16.384,31.735 -23.438,48.162 v 0 c -6.999,16.473 -13.265,33.196 -18.804,50.292 v 0 c -5.639,17.178 -11.024,34.388 -15.861,51.701 v 0 c -1.806,6.478 -3.539,12.97 -5.186,19.475 v 0 c 6.554,21.648 11.408,43.842 14.41,66.325 v 0 c 2.476,18.379 3.599,36.952 3.495,55.526 v 0 c -0.113,4.661 -0.093,9.216 -0.411,14.088 v 0 c -0.305,4.814 -0.828,9.675 -1.738,14.557 v 0 c -1.775,9.73 -5.099,19.69 -11.003,28.543 v 0 c -0.657,1.045 -1.62,2.382 -2.696,3.644 v 0 c -1.132,1.285 -2.48,2.678 -4.621,4.021 v 0 c -0.549,0.333 -1.17,0.66 -1.811,0.953 v 0 c -0.732,0.293 -1.381,0.57 -2.246,0.766 v 0 c -0.955,0.259 -2.049,0.395 -3.159,0.395 v 0 c -0.74,0 -1.488,-0.061 -2.205,-0.185 m -3.179,-102.994 c -0.763,8.854 -1.231,17.713 -1.35,26.542 v 0 c -0.055,4.414 -0.01,8.817 0.132,13.206 v 0 c 0.068,2.195 0.176,4.383 0.299,6.568 v 0 c 0.1,1.832 0.362,4.12 0.61,6.245 v 0 c 1.06,8.625 2.503,17.409 4.794,25.219 v 0 c 0.456,1.525 0.954,3.009 1.487,4.346 v 0 c 3.722,-5.998 6.131,-13.065 7.611,-20.559 v 0 c 0.805,-4.038 1.311,-8.218 1.63,-12.463 v 0 c 0.329,-4.188 0.376,-8.722 0.541,-13.138 v 0 c 0.323,-17.748 -0.522,-35.537 -2.673,-53.191 v 0 c -1.372,-11.513 -3.277,-22.957 -5.668,-34.311 v 0 c -3.366,17.077 -5.939,34.268 -7.413,51.536 m 264.461,-409.686 c -3.875,0.109 -8.006,0.74 -12.136,1.634 v 0 c -8.288,1.826 -16.614,4.591 -24.816,7.858 v 0 c -16.307,6.438 -31.887,14.719 -46.351,24.736 v 0 c -14.552,9.888 -27.882,21.573 -40.322,34.125 v 0 c -1.497,1.547 -2.98,3.106 -4.45,4.681 v 0 c 23.125,-4.953 45.805,-11.715 67.626,-20.601 v 0 c 8.295,-3.338 16.457,-6.992 24.459,-10.953 v 0 c 7.929,-3.96 16.114,-8.111 23.636,-12.503 v 0 c 3.776,-2.221 7.443,-4.559 10.883,-7.06 v 0 c 3.427,-2.496 6.663,-5.176 9.246,-8.011 v 0 c 2.595,-2.777 4.385,-5.935 4.449,-7.82 v 0 c 0.064,-0.944 -0.099,-1.606 -0.6,-2.539 v 0 c -0.484,-0.826 -1.072,-1.399 -2.088,-1.973 v 0 c -1.816,-1.041 -4.969,-1.595 -8.373,-1.595 v 0 c -0.385,0 -0.773,0.01 -1.163,0.021"/>
  </g>
</svg>
