<svg xmlns="http://www.w3.org/2000/svg" width="1924.452" height="765.452" viewBox="0 0 1924.452 765.452"><defs><linearGradient id="a" x1="0" x2="1" y1="0" y2="0" gradientTransform="matrix(84.29488 0 0 -84.29488 2176.269 1466.63)" gradientUnits="userSpaceOnUse" spreadMethod="pad"><stop offset="0" style="stop-opacity:1;stop-color:#583517"/><stop offset=".101" style="stop-opacity:1;stop-color:#e1a144"/><stop offset=".185" style="stop-opacity:1;stop-color:#a06719"/><stop offset=".386" style="stop-opacity:1;stop-color:#f0be68"/><stop offset=".551" style="stop-opacity:1;stop-color:#9b681a"/><stop offset=".78" style="stop-opacity:1;stop-color:#e0a853"/><stop offset="1" style="stop-opacity:1;stop-color:#513618"/></linearGradient><linearGradient id="b" x1="0" x2="1" y1="0" y2="0" gradientTransform="matrix(118.50967 0 0 -118.50967 2232.208 1524.381)" gradientUnits="userSpaceOnUse" spreadMethod="pad"><stop offset="0" style="stop-opacity:1;stop-color:#583517"/><stop offset=".101" style="stop-opacity:1;stop-color:#e1a144"/><stop offset=".185" style="stop-opacity:1;stop-color:#a06719"/><stop offset=".386" style="stop-opacity:1;stop-color:#f0be68"/><stop offset=".551" style="stop-opacity:1;stop-color:#9b681a"/><stop offset=".78" style="stop-opacity:1;stop-color:#e0a853"/><stop offset="1" style="stop-opacity:1;stop-color:#513618"/></linearGradient><linearGradient id="c" x1="0" x2="1" y1="0" y2="0" gradientTransform="matrix(68.58204 0 0 -68.58204 2339.55 1482.805)" gradientUnits="userSpaceOnUse" spreadMethod="pad"><stop offset="0" style="stop-opacity:1;stop-color:#583517"/><stop offset=".101" style="stop-opacity:1;stop-color:#e1a144"/><stop offset=".185" style="stop-opacity:1;stop-color:#a06719"/><stop offset=".386" style="stop-opacity:1;stop-color:#f0be68"/><stop offset=".551" style="stop-opacity:1;stop-color:#9b681a"/><stop offset=".78" style="stop-opacity:1;stop-color:#e0a853"/><stop offset="1" style="stop-opacity:1;stop-color:#513618"/></linearGradient><linearGradient id="d" x1="0" x2="1" y1="0" y2="0" gradientTransform="matrix(98.69803 0 0 -98.69803 2399.848 1438.124)" gradientUnits="userSpaceOnUse" spreadMethod="pad"><stop offset="0" style="stop-opacity:1;stop-color:#583517"/><stop offset=".101" style="stop-opacity:1;stop-color:#e1a144"/><stop offset=".185" style="stop-opacity:1;stop-color:#a06719"/><stop offset=".386" style="stop-opacity:1;stop-color:#f0be68"/><stop offset=".551" style="stop-opacity:1;stop-color:#9b681a"/><stop offset=".78" style="stop-opacity:1;stop-color:#e0a853"/><stop offset="1" style="stop-opacity:1;stop-color:#513618"/></linearGradient><linearGradient id="e" x1="0" x2="1" y1="0" y2="0" gradientTransform="matrix(98.69803 0 0 -98.69803 2491.575 1438.124)" gradientUnits="userSpaceOnUse" spreadMethod="pad"><stop offset="0" style="stop-opacity:1;stop-color:#583517"/><stop offset=".101" style="stop-opacity:1;stop-color:#e1a144"/><stop offset=".185" style="stop-opacity:1;stop-color:#a06719"/><stop offset=".386" style="stop-opacity:1;stop-color:#f0be68"/><stop offset=".551" style="stop-opacity:1;stop-color:#9b681a"/><stop offset=".78" style="stop-opacity:1;stop-color:#e0a853"/><stop offset="1" style="stop-opacity:1;stop-color:#513618"/></linearGradient><linearGradient id="f" x1="0" x2="1" y1="0" y2="0" gradientTransform="matrix(295.78134 0 0 -295.78134 2556.781 1488.092)" gradientUnits="userSpaceOnUse" spreadMethod="pad"><stop offset="0" style="stop-opacity:1;stop-color:#583517"/><stop offset=".101" style="stop-opacity:1;stop-color:#e1a144"/><stop offset=".185" style="stop-opacity:1;stop-color:#a06719"/><stop offset=".386" style="stop-opacity:1;stop-color:#f0be68"/><stop offset=".551" style="stop-opacity:1;stop-color:#9b681a"/><stop offset=".78" style="stop-opacity:1;stop-color:#e0a853"/><stop offset="1" style="stop-opacity:1;stop-color:#513618"/></linearGradient><linearGradient id="g" x1="0" x2="1" y1="0" y2="0" gradientTransform="matrix(87.10632 0 0 -87.10632 2839.809 1478.184)" gradientUnits="userSpaceOnUse" spreadMethod="pad"><stop offset="0" style="stop-opacity:1;stop-color:#583517"/><stop offset=".101" style="stop-opacity:1;stop-color:#e1a144"/><stop offset=".185" style="stop-opacity:1;stop-color:#a06719"/><stop offset=".386" style="stop-opacity:1;stop-color:#f0be68"/><stop offset=".551" style="stop-opacity:1;stop-color:#9b681a"/><stop offset=".78" style="stop-opacity:1;stop-color:#e0a853"/><stop offset="1" style="stop-opacity:1;stop-color:#513618"/></linearGradient><linearGradient id="h" x1="0" x2="1" y1="0" y2="0" gradientTransform="matrix(138.52588 0 0 -138.52588 2906.834 1474.176)" gradientUnits="userSpaceOnUse" spreadMethod="pad"><stop offset="0" style="stop-opacity:1;stop-color:#583517"/><stop offset=".101" style="stop-opacity:1;stop-color:#e1a144"/><stop offset=".185" style="stop-opacity:1;stop-color:#a06719"/><stop offset=".386" style="stop-opacity:1;stop-color:#f0be68"/><stop offset=".551" style="stop-opacity:1;stop-color:#9b681a"/><stop offset=".78" style="stop-opacity:1;stop-color:#e0a853"/><stop offset="1" style="stop-opacity:1;stop-color:#513618"/></linearGradient><linearGradient id="i" x1="0" x2="1" y1="0" y2="0" gradientTransform="matrix(85.00318 0 0 -85.00318 3027.877 1482.9)" gradientUnits="userSpaceOnUse" spreadMethod="pad"><stop offset="0" style="stop-opacity:1;stop-color:#583517"/><stop offset=".101" style="stop-opacity:1;stop-color:#e1a144"/><stop offset=".185" style="stop-opacity:1;stop-color:#a06719"/><stop offset=".386" style="stop-opacity:1;stop-color:#f0be68"/><stop offset=".551" style="stop-opacity:1;stop-color:#9b681a"/><stop offset=".78" style="stop-opacity:1;stop-color:#e0a853"/><stop offset="1" style="stop-opacity:1;stop-color:#513618"/></linearGradient><linearGradient id="j" x1="0" x2="1" y1="0" y2="0" gradientTransform="matrix(98.69743 0 0 -98.69743 3104.53 1438.124)" gradientUnits="userSpaceOnUse" spreadMethod="pad"><stop offset="0" style="stop-opacity:1;stop-color:#583517"/><stop offset=".101" style="stop-opacity:1;stop-color:#e1a144"/><stop offset=".185" style="stop-opacity:1;stop-color:#a06719"/><stop offset=".386" style="stop-opacity:1;stop-color:#f0be68"/><stop offset=".551" style="stop-opacity:1;stop-color:#9b681a"/><stop offset=".78" style="stop-opacity:1;stop-color:#e0a853"/><stop offset="1" style="stop-opacity:1;stop-color:#513618"/></linearGradient><linearGradient id="k" x1="0" x2="1" y1="0" y2="0" gradientTransform="matrix(590.68945 0 0 -590.68945 1759.05 1531.58)" gradientUnits="userSpaceOnUse" spreadMethod="pad"><stop offset="0" style="stop-opacity:1;stop-color:#583517"/><stop offset=".101" style="stop-opacity:1;stop-color:#e1a144"/><stop offset=".185" style="stop-opacity:1;stop-color:#a06719"/><stop offset=".386" style="stop-opacity:1;stop-color:#f0be68"/><stop offset=".551" style="stop-opacity:1;stop-color:#9b681a"/><stop offset=".78" style="stop-opacity:1;stop-color:#e0a853"/><stop offset="1" style="stop-opacity:1;stop-color:#513618"/></linearGradient><linearGradient id="l" x1="0" x2="1" y1="0" y2="0" gradientTransform="matrix(14.01905 0 0 -14.01905 2035.383 1439.918)" gradientUnits="userSpaceOnUse" spreadMethod="pad"><stop offset="0" style="stop-opacity:1;stop-color:#583517"/><stop offset=".101" style="stop-opacity:1;stop-color:#e1a144"/><stop offset=".185" style="stop-opacity:1;stop-color:#a06719"/><stop offset=".386" style="stop-opacity:1;stop-color:#f0be68"/><stop offset=".551" style="stop-opacity:1;stop-color:#9b681a"/><stop offset=".78" style="stop-opacity:1;stop-color:#e0a853"/><stop offset="1" style="stop-opacity:1;stop-color:#513618"/></linearGradient><linearGradient id="m" x1="0" x2="1" y1="0" y2="0" gradientTransform="matrix(14.01905 0 0 -14.01905 2063.421 1439.918)" gradientUnits="userSpaceOnUse" spreadMethod="pad"><stop offset="0" style="stop-opacity:1;stop-color:#583517"/><stop offset=".101" style="stop-opacity:1;stop-color:#e1a144"/><stop offset=".185" style="stop-opacity:1;stop-color:#a06719"/><stop offset=".386" style="stop-opacity:1;stop-color:#f0be68"/><stop offset=".551" style="stop-opacity:1;stop-color:#9b681a"/><stop offset=".78" style="stop-opacity:1;stop-color:#e0a853"/><stop offset="1" style="stop-opacity:1;stop-color:#513618"/></linearGradient><linearGradient id="n" x1="0" x2="1" y1="0" y2="0" gradientTransform="matrix(14.01905 0 0 -14.01905 2035.383 1411.88)" gradientUnits="userSpaceOnUse" spreadMethod="pad"><stop offset="0" style="stop-opacity:1;stop-color:#583517"/><stop offset=".101" style="stop-opacity:1;stop-color:#e1a144"/><stop offset=".185" style="stop-opacity:1;stop-color:#a06719"/><stop offset=".386" style="stop-opacity:1;stop-color:#f0be68"/><stop offset=".551" style="stop-opacity:1;stop-color:#9b681a"/><stop offset=".78" style="stop-opacity:1;stop-color:#e0a853"/><stop offset="1" style="stop-opacity:1;stop-color:#513618"/></linearGradient><linearGradient id="o" x1="0" x2="1" y1="0" y2="0" gradientTransform="matrix(14.01905 0 0 -14.01905 2063.421 1411.88)" gradientUnits="userSpaceOnUse" spreadMethod="pad"><stop offset="0" style="stop-opacity:1;stop-color:#583517"/><stop offset=".101" style="stop-opacity:1;stop-color:#e1a144"/><stop offset=".185" style="stop-opacity:1;stop-color:#a06719"/><stop offset=".386" style="stop-opacity:1;stop-color:#f0be68"/><stop offset=".551" style="stop-opacity:1;stop-color:#9b681a"/><stop offset=".78" style="stop-opacity:1;stop-color:#e0a853"/><stop offset="1" style="stop-opacity:1;stop-color:#513618"/></linearGradient></defs><path d="M2192.719 1501.902q-6.945-6.832-11.493-19.347-4.323-11.839-4.896-24.015-.565-12.178 3.984-22.419 4.324-7.736 12.519-9.561a19 19 0 0 1 4.097-.455q5.688 0 12.064 3.53c4.246 2.354 8.308 5.313 12.177 8.875q5.804 5.35 12.86 14.339 7.052 8.988 12.632 16.959 5.575 7.966 13.089 19.574 1.135 1.366.683 3.186c-.307 1.213-.95 2.164-1.935 2.845q-1.483 1.025-3.302.57-1.823-.458-2.73-1.821-5.464-8.425-8.65-13.087-3.19-4.667-9.218-13.2-6.034-8.537-10.585-13.658c-3.035-3.415-6.412-6.908-10.127-10.47q-5.58-5.347-10.471-7.399-4.897-2.047-8.762-1.137-4.328.911-6.602 5.235-3.414 6.143-3.072 17.184.341 11.037 4.437 21.738 2.502 7.052 5.691 11.721c2.123 3.109 3.83 5.123 5.121 6.033q1.932 1.365 2.846 1.365 2.047-1.825-.228-10.47-.457-1.596.455-3.186.907-1.596 2.732-2.05c1.212-.307 2.311-.152 3.3.455q1.477.909 1.934 2.732c.912 4.097 1.366 7.432 1.366 10.015q-.002 3.868-1.593 6.26-1.595 2.386-2.731 3.186-1.139.794-2.503 1.251a9 9 0 0 1-2.88.473q-4.87 0-10.209-5.251" style="fill:url(#a);stroke:none" transform="matrix(1.33333 0 0 -1.33333 -2346.517 2406.865)"/><path d="M2309.141 1658.726q-7.514-1.595-17.639-23.672-10.133-22.079-17.868-53.488-2.278-9.561-6.373-26.631c0-.456-.079-.837-.227-1.138a9286 9286 0 0 1-23.104-101.515q-11.72-52.804-11.722-57.814.001-1.14.455-2.162.457-1.025 1.252-1.594.799-.567 1.935-.797h.682q3.192.002 4.097 2.96l1.139 3.187q5.237 16.615 8.421 26.174 3.185 9.561 9.446 23.901.521 1.194 1.042 2.355-.58-1.315-.245-2.81 2.503-13.659 13.429-15.706a24.6 24.6 0 0 1 3.415-.228q15.473 0 37.783 19.234 22.304 19.231 35.052 39.945.908 1.364.456 3.186-.459 1.82-1.935 2.73-1.483.91-3.3.57c-1.216-.227-2.127-.875-2.732-1.935q-13.885-22.533-35.394-39.604-21.51-17.07-31.751-15.25-4.329.913-5.918 6.829.681.682 2.731 2.504 9.101 7.966 13.429 13.428 5.461 7.283 7.738 15.137 2.274 7.852 0 12.633-1.823 4.548-6.6 5.007c-6.224.456-13.656-5.997-22.306-19.347q-5.691-8.878-11.154-20.941a6201 6201 0 0 0 22.307 97.875q11.15 20.255 19.803 38.124 8.647 17.865 13.656 31.297 5.006 13.425 6.714 22.762 1.708 9.33-.796 12.289-1.877 2.625-4.677 2.626-.6 0-1.241-.121m-1.821-12.747q-3.414-19.118-23.217-59.406 10.926 41.425 23.217 59.406m-35.279-175.944q8.417 13.2 13.656 15.252.453-1.599 0-4.212c-.306-1.746-1.063-3.949-2.276-6.6a41.3 41.3 0 0 0-4.553-7.627q-3.872-5.008-12.29-12.291-4.1-3.413-5.349-5.121a5 5 0 0 1-.534-.903c3.813 8.5 7.596 15.67 11.346 21.502" style="fill:url(#b);stroke:none" transform="matrix(1.33333 0 0 -1.33333 -2346.517 2406.865)"/><path d="M2354.208 1524.662q-3.645-1.367-5.917-5.462-2.508-5.01 4.096-5.464 2.957-.002 5.236 1.138 4.551 2.275 3.413 6.83-.826 3.46-4.035 3.46-1.223 0-2.793-.502m-7.283-27.086q-1.596-.911-2.048-2.733-12.062-46.89 3.186-53.487 2.049-.909 4.78-.91 7.737 0 19.006 8.647a126.4 126.4 0 0 1 20.258 19.463q8.988 10.808 15.364 20.826.908 1.59.569 3.415-.345 1.82-1.937 2.73-1.591.909-3.3.456a5.47 5.47 0 0 1-2.845-1.821q-11.384-18.437-26.971-32.777c-10.396-9.557-17.565-13.506-21.509-11.836q-.46.226-1.025.798-.57.566-1.366 3.414-.798 2.844-.91 7.168-.116 4.323 1.137 12.635 1.252 8.305 3.985 19.233.452 1.59-.456 3.186-.912 1.59-2.617 2.049-.567.15-1.122.15-1.117 0-2.179-.606" style="fill:url(#c);stroke:none" transform="matrix(1.33333 0 0 -1.33333 -2346.517 2406.865)"/><path d="M2430.23 1521.021q-7.06-.685-13.429-4.552-7.511-4.556-11.95-11.837-4.439-7.287-4.894-16.389c-.306-6.224 1.366-13.124 5.007-20.712 3.643-7.59 9.255-17.07 16.844-28.451q5.461-8.193 7.966-16.844-39.148-53.261-27.085-64.869c1.514-1.515 3.414-2.276 5.689-2.276q5.463 0 11.837 5.462c4.553 3.641 8.497 8.348 11.836 14.112 3.335 5.769 5.918 12.672 7.738 20.713 1.821 8.046 1.669 16.389-.455 25.037 2.427 3.186 4.929 6.451 7.511 9.787 4.247 5.315 21.09 25.113 50.531 59.409.91.911 1.288 1.969 1.137 3.186q-.228 1.819-1.592 3.072-1.367 1.249-3.188 1.025-1.823-.228-2.957-1.594c-29.59-34.448-46.513-54.32-50.758-59.635a217 217 0 0 0-3.87-5.008c-1.821 4.554-4.176 9.03-7.056 13.43q-10.244 15.477-15.477 25.834-5.24 10.356-4.781 17.866.681 14.113 12.519 21.171 9.786 5.916 17.981 2.046c1.06-.454 2.163-.493 3.3-.113 1.139.377 1.971 1.099 2.505 2.163.529 1.059.604 2.162.227 3.3q-.572 1.707-2.162 2.617-4.737 2.186-10.199 2.186-1.365 0-2.775-.136m-20.826-150.567c.831 3.112 3.186 8.233 7.055 15.366q5.804 10.698 15.365 24.352 1.134-18.207-8.878-33.459-4.097-5.915-8.193-9.218-4.098-3.298-6.146-3.527-.457 1.826.797 6.486" style="fill:url(#d);stroke:none" transform="matrix(1.33333 0 0 -1.33333 -2346.517 2406.865)"/><path d="M2521.957 1521.021q-7.057-.685-13.429-4.552-7.511-4.556-11.949-11.837-4.44-7.287-4.893-16.389c-.307-6.224 1.365-13.124 5.006-20.712 3.642-7.59 9.255-17.07 16.844-28.451q5.461-8.193 7.966-16.844-39.148-53.261-27.086-64.869 2.275-2.274 5.691-2.276 5.462 0 11.837 5.462c4.551 3.641 8.495 8.348 11.835 14.112q5.006 8.652 7.739 20.713c1.819 8.046 1.668 16.389-.456 25.037 2.426 3.186 4.929 6.451 7.512 9.787 4.245 5.315 21.088 25.113 50.529 59.409.91.911 1.289 1.969 1.138 3.186q-.228 1.819-1.593 3.072-1.366 1.249-3.186 1.025-1.824-.228-2.959-1.594c-29.59-34.448-46.512-54.32-50.758-59.635a211 211 0 0 0-3.87-5.008q-2.733 6.83-7.056 13.43-10.244 15.477-15.477 25.834-5.238 10.356-4.78 17.866.682 14.113 12.519 21.171c6.522 3.944 12.519 4.626 17.981 2.046q1.59-.682 3.302-.113 1.703.566 2.502 2.163c.531 1.059.605 2.162.228 3.3q-.572 1.707-2.163 2.617-4.736 2.186-10.199 2.186-1.364 0-2.775-.136m-20.825-150.567q1.249 4.667 7.056 15.366 5.802 10.698 15.364 24.352 1.136-18.207-8.878-33.459c-2.73-3.942-5.464-7.017-8.194-9.218q-4.096-3.298-6.146-3.527-.458 1.826.798 6.486" style="fill:url(#e);stroke:none" transform="matrix(1.33333 0 0 -1.33333 -2346.517 2406.865)"/><path d="M2818.308 1672.157q-1.596-.915-2.048-2.732-7.511-29.366-30.729-151.135-.684 0-1.593-.341a16 16 0 0 0-1.82-.57 24 24 0 0 1-1.595-.456q-59.182-17.982-90.134-27.541 11.379 54.398 25.948 123.822l.911 4.78q5.687 25.719-3.642 31.182c-5.16 3.188-12.292.832-21.395-7.056q-7.968-7.058-17.185-19.233a233 233 0 0 1-16.844-25.608q-7.628-13.431-11.153-26.97-3.527-13.546-.113-21.51 5.002-12.066 21.851-10.926 1.817 0 2.959 1.366 1.135 1.364 1.024 3.188c-.08 1.211-.569 2.236-1.48 3.072q-1.366 1.248-3.187 1.024-10.472-.682-12.974 5.462-1.595 3.867-.797 9.902.796 6.029 3.756 13.999 2.956 7.964 7.74 17.07a194.5 194.5 0 0 0 15.591 24.126q8.759 11.61 16.729 18.437 3.184 2.733 5.918 4.324 2.731 1.593 3.756 1.821c.683.151 1.173.151 1.479 0 .303-.152.604-.567.911-1.251q.454-1.027.456-6.6-.001-5.58-1.822-14.226l-1.138-4.552q-15.252-72.382-26.857-128.603c-16.997-5.461-32.02-10.32-45.068-14.567q-35.735-12.065-54.856-20.027-14.565-6.15-19.346-9.902-4.78-3.755-4.78-7.399.457-5.234 7.739-6.6.457-.226.91-.227 3.643 0 4.325 3.641c.305 1.82-.304 3.264-1.822 4.324q13.432 8.878 75.567 29.364a3752 3752 0 0 0 35.509 11.607 6722 6722 0 0 1-6.828-33.688q-12.066-59.859-18.209-93.32-3.415-19.344-4.781-29.819-1.365-7.281-1.024-11.379t3.529-4.779c.603-.151 1.138-.229 1.594-.229q1.59.001 2.957 1.481 1.366 1.483 2.049 3.07c.456 1.064 1.059 2.659 1.821 4.781q.683 1.596-.114 3.189c-.534 1.061-1.251 1.819-2.162 2.275 2.881 22.157 13.123 75.946 30.727 161.378q32.093 10.01 94.46 28.906.223-.002.341.113.113.113.342.114-2.96-14.798-8.421-44.384-12.976-67.826-15.479-80.574-.456-1.82.57-3.301 1.022-1.477 2.618-1.935h.909q3.64 0 4.326 3.415 1.364 5.919 3.983 19.347a2301 2301 0 0 1 4.779 25.263c1.441 7.893 3.754 19.953 6.942 36.191q5.916 31.182 9.105 48.709 41.424 12.516 56.676 17.3 1.137.452 1.819 1.366c.456.603.758 1.251.911 1.935q.226 1.022 0 2.39-.457 1.588-2.16 2.388-1.711.795-3.302.343c-9.865-3.187-27.239-8.502-52.123-15.933q22.532 117.448 29.817 146.127.452 1.59-.455 3.186-.912 1.59-2.618 2.049-.568.15-1.124.15-1.115 0-2.176-.604" style="fill:url(#f);stroke:none" transform="matrix(1.33333 0 0 -1.33333 -2346.517 2406.865)"/><path d="M2863.033 1506.909c-2.502-1.821-4.439-4.404-5.804-7.74q-2.049.683-3.643-.456-7.512-4.78-11.493-14.907-3.98-10.131-1.025-21.282c1.217-4.706 3.375-8.387 6.486-11.04 3.108-2.657 6.715-4.061 10.812-4.21h.228q6.144 0 11.837 4.438c3.79 2.96 6.75 7.016 8.877 12.177 7.584-1.671 15.705-.226 24.352 4.326 8.651 4.551 16.084 10.848 22.308 18.891.758.911 1.059 1.97.909 3.187q-.228 1.819-1.705 2.959c-.99.758-2.089 1.058-3.301.91q-1.823-.228-2.959-1.594-7.511-9.788-18.096-15.932c-7.055-4.097-13.468-5.543-19.233-4.326q.454 2.276.684 4.554.452 9.1-.456 15.704-.913 6.6-2.844 9.789-1.939 3.181-3.87 4.666-1.939 1.477-4.212 1.935a10 10 0 0 1-1.625.136q-3.223 0-6.227-2.185m2.389-21.852c-1.215 3.337-1.365 6.602-.456 9.786q.685 2.503 2.051 3.985 1.364 1.479 2.275 1.48h.228q.225 0 .796-.684.569-.683 1.252-2.276c.455-1.062.832-2.428 1.139-4.096q.455-2.507.796-6.486.34-3.986-.114-9.446v-1.366q-6.147 4.096-7.967 9.103m-15.932-20.028c-1.217 3.641-1.252 7.888-.114 12.745 1.138 4.855 3.221 8.725 6.259 11.608.456-9.41 5.613-16.843 15.478-22.307q-2.278-5.007-5.804-7.966c-2.355-1.972-4.59-2.958-6.715-2.958q-6.602-.001-9.104 8.878" style="fill:url(#g);stroke:none" transform="matrix(1.33333 0 0 -1.33333 -2346.517 2406.865)"/><path d="M2931.77 1518.06q-1.707-.682-2.389-2.502-10.243-22.992-17.527-52.123c-1.514-5.769-2.654-10.698-3.415-14.796q-1.136-6.143-1.477-9.332-.341-3.186.226-5.235.573-2.046 1.139-2.502.57-.454 1.591-1.026a4.44 4.44 0 0 1 2.165-.568q3.189 0 5.917 5.235 15.706 30.043 30.728 51.441c-.153-4.097-.227-7.666-.227-10.698q-.232-23.904 9.103-26.177c4.554-1.217 8.799 1.97 12.746 9.561q1.365 2.272 5.236 10.697c4.554 9.253 7.888 15.855 10.015 19.802q.907-24.357 12.972-28.908 16.844-6.373 45.753 27.542 1.135 1.365 1.024 3.188c-.079 1.212-.568 2.197-1.481 2.959q-1.366 1.136-3.186 1.023-1.824-.114-2.96-1.479-12.748-15.023-22.077-20.826-9.334-5.804-13.884-4.212c-5.008 1.969-7.437 10.394-7.284 25.265q0 8.878-4.78 10.015-4.325.908-8.422-5.121-4.098-6.033-13.427-25.606-3.874-7.97-5.009-10.242-1.824-3.188-3.186-4.553c-1.673 3.336-2.505 9.026-2.505 17.072q-.001 4.549.228 11.608.225 8.418-.228 11.266-.456 2.844-3.186 3.755-3.872 1.366-7.056-3.186-14.568-20.262-28.224-44.385c4.855 20.942 11.074 39.983 18.663 57.132.456 1.059.492 2.162.115 3.3-.381 1.137-1.138 1.969-2.275 2.505a4.3 4.3 0 0 1-1.838.427 4.2 4.2 0 0 1-1.578-.316" style="fill:url(#h);stroke:none" transform="matrix(1.33333 0 0 -1.33333 -2346.517 2406.865)"/><path d="M3065.263 1534.223q-7.286-.23-16.387-12.293-9.107-12.065-15.478-32.775v-.228q-4.097-12.748-5.12-22.762c-.684-6.679-.492-12.062.57-16.161q1.593-6.144 3.754-9.558 2.162-3.415 4.893-5.463 4.78-3.414 11.154-3.413 8.193 0 16.614 5.916c14.114 10.016 29.741 27.007 46.89 50.985.604.911.833 1.971.683 3.188q-.23 1.82-1.709 2.844t-3.299.683q-1.822-.342-2.959-1.708-24.584-34.599-44.613-48.707c-7.133-5.158-12.972-6.068-17.526-2.734-.762.61-1.48 1.366-2.161 2.278q-1.026 1.366-2.276 4.667-1.255 3.298-1.594 7.738-.342 4.439.796 11.95t3.87 16.387q16.388 13.881 24.81 25.947c5.611 8.043 7.587 14.263 5.918 18.666q-1.524 4.564-6.371 4.563c-.15 0-.304 0-.459-.01m-1.591-9.561q-2.508-8.423-15.707-21.623 7.737 16.613 15.707 21.623" style="fill:url(#i);stroke:none" transform="matrix(1.33333 0 0 -1.33333 -2346.517 2406.865)"/><path d="M3134.911 1521.021c-4.704-.456-9.184-1.974-13.429-4.552q-7.511-4.556-11.95-11.837-4.44-7.287-4.895-16.389c-.305-6.224 1.367-13.124 5.009-20.712 3.642-7.59 9.254-17.07 16.843-28.451q5.461-8.193 7.967-16.844-39.15-53.261-27.084-64.869 2.27-2.274 5.689-2.276 5.461 0 11.834 5.462c4.554 3.641 8.498 8.348 11.836 14.112q5.008 8.652 7.74 20.713c1.821 8.046 1.669 16.389-.456 25.037 2.426 3.186 4.929 6.451 7.512 9.787 4.247 5.315 21.09 25.113 50.531 59.409.909.911 1.287 1.969 1.137 3.186q-.228 1.819-1.594 3.072-1.367 1.249-3.185 1.025-1.824-.228-2.96-1.594c-29.589-34.448-46.512-54.32-50.759-59.635a220 220 0 0 0-3.866-5.008c-1.822 4.554-4.178 9.03-7.058 13.43q-10.244 15.477-15.478 25.834-5.238 10.356-4.778 17.866.682 14.113 12.516 21.171 9.786 5.916 17.982 2.046 1.592-.682 3.302-.113c1.138.377 1.969 1.099 2.503 2.163.53 1.059.605 2.162.227 3.3q-.573 1.707-2.162 2.617-4.736 2.186-10.199 2.186-1.364 0-2.775-.136m-20.827-150.567c.832 3.112 3.187 8.233 7.056 15.366q5.805 10.698 15.365 24.352 1.137-18.207-8.877-33.459-4.099-5.915-8.195-9.218-4.097-3.298-6.145-3.527-.458 1.826.796 6.486" style="fill:url(#j);stroke:none" transform="matrix(1.33333 0 0 -1.33333 -2346.517 2406.865)"/><path d="M2062.266 1799.867c-1.853-.303-3.384-1.002-4.684-1.76a16 16 0 0 1-3.013-2.379c-1.586-1.596-2.576-3.075-3.417-4.464a37 37 0 0 1-2.048-3.998c-1.141-2.572-1.971-5.016-2.709-7.434-2.841-9.628-4.322-18.843-5.533-28.224-.282-2.384-.562-4.608-.732-7.31a273 273 0 0 1-.349-7.039 313 313 0 0 1-.195-14.036c.089-9.334.547-18.626 1.306-27.873 2.494-30.161 8.026-59.892 15.455-88.957a473 473 0 0 0-10.493-30.126c-12.918-33.343-29.8-65.201-49.533-95.21-19.633-30.093-42.145-58.384-66.848-84.663-24.647-26.344-51.461-50.73-79.979-73.015-14.238-11.176-28.939-21.779-44.032-31.823a753 753 0 0 0-22.902-14.692 728 728 0 0 0-23.51-13.757c65.4 31.806 125.336 75.136 177.233 126.692 25.828 25.917 49.576 54.017 70.541 84.188 20.832 30.243 38.853 62.578 52.918 96.716a434 434 0 0 1 3.813 9.503c4.498-15.427 9.372-30.7 14.416-45.87a624 624 0 0 1 19.556-51.681c14.655-33.831 32.336-66.561 54.373-96.451a357 357 0 0 1 8.274-10.902c-36.491 3.601-73.233 3.305-109.517-.525-36.259-3.862-72.243-10.681-106.87-21.776 17.525 4.793 35.385 8.179 53.298 10.931 17.916 2.748 35.935 4.745 53.992 5.88 36.1 2.265 72.373 1.526 108.066-3.297q4.669-.627 9.324-1.343a376 376 0 0 1 19.61-21.363c13.267-13.087 27.53-25.298 43.16-35.662 7.729-5.301 15.891-9.969 24.178-14.368 4.208-2.09 8.384-4.237 12.725-6.046 4.268-1.964 8.67-3.62 13.058-5.298 8.733-3.275 17.754-6.117 27.249-8.02 4.762-.927 9.657-1.62 14.87-1.672 2.606-.02 5.301.128 8.124.637 2.808.516 5.796 1.386 8.735 3.097 2.925 1.671 5.707 4.394 7.365 7.586 1.671 3.052 2.524 7.025 2.084 10.608-.398 3.599-1.727 6.642-3.23 9.167-1.526 2.531-3.269 4.654-5.075 6.563-3.625 3.805-7.515 6.837-11.471 9.616-3.961 2.765-8.014 5.229-12.11 7.536-4.086 2.301-8.266 4.443-12.337 6.472-4.074 1.989-8.237 4.14-12.444 6.003a359 359 0 0 1-25.558 10.635c-26.745 10.031-54.484 17.064-82.56 21.457a347 347 0 0 0-18.936 24.251c-5.216 7.194-10.084 14.652-14.847 22.171-4.656 7.592-9.242 15.232-13.517 23.062-8.66 15.598-16.384 31.735-23.438 48.162a606 606 0 0 0-18.804 50.292c-5.639 17.178-11.024 34.388-15.861 51.701a843 843 0 0 0-5.186 19.475c6.554 21.648 11.408 43.842 14.41 66.325 2.476 18.379 3.599 36.952 3.495 55.526-.113 4.661-.093 9.216-.411 14.088-.305 4.814-.828 9.675-1.738 14.557-1.775 9.73-5.099 19.69-11.003 28.543a33 33 0 0 1-2.696 3.644c-1.132 1.285-2.48 2.678-4.621 4.021-.549.333-1.17.66-1.811.953-.732.293-1.381.57-2.246.766-.955.259-2.049.395-3.159.395-.74 0-1.488-.061-2.205-.185m-3.179-102.994c-.763 8.854-1.231 17.713-1.35 26.542q-.082 6.622.132 13.206c.068 2.195.176 4.383.299 6.568.1 1.832.362 4.12.61 6.245 1.06 8.625 2.503 17.409 4.794 25.219a53 53 0 0 0 1.487 4.346c3.722-5.998 6.131-13.065 7.611-20.559.805-4.038 1.311-8.218 1.63-12.463.329-4.188.376-8.722.541-13.138.323-17.748-.522-35.537-2.673-53.191a391 391 0 0 0-5.668-34.311c-3.366 17.077-5.939 34.268-7.413 51.536m264.461-409.686c-3.875.109-8.006.74-12.136 1.634-8.288 1.826-16.614 4.591-24.816 7.858-16.307 6.438-31.887 14.719-46.351 24.736-14.552 9.888-27.882 21.573-40.322 34.125a358 358 0 0 0-4.45 4.681c23.125-4.953 45.805-11.715 67.626-20.601a348 348 0 0 0 24.459-10.953c7.929-3.96 16.114-8.111 23.636-12.503 3.776-2.221 7.443-4.559 10.883-7.06 3.427-2.496 6.663-5.176 9.246-8.011 2.595-2.777 4.385-5.935 4.449-7.82.064-.944-.099-1.606-.6-2.539-.484-.826-1.072-1.399-2.088-1.973-1.816-1.041-4.969-1.595-8.373-1.595-.385 0-.773.01-1.163.021" style="fill:url(#k);stroke:none" transform="matrix(1.33333 0 0 -1.33333 -2345.4 2400.07)"/><path d="M2035.384 1432.909h14.019v14.019h-14.019z" style="fill:url(#l);stroke:none" transform="matrix(1.33333 0 0 -1.33333 -2345.4 2400.07)"/><path d="M2063.422 1432.909h14.019v14.019h-14.019z" style="fill:url(#m);stroke:none" transform="matrix(1.33333 0 0 -1.33333 -2345.4 2400.07)"/><path d="M2035.384 1404.87h14.019v14.019h-14.019z" style="fill:url(#n);stroke:none" transform="matrix(1.33333 0 0 -1.33333 -2345.4 2400.07)"/><path d="M2063.422 1404.87h14.019v14.019h-14.019z" style="fill:url(#o);stroke:none" transform="matrix(1.33333 0 0 -1.33333 -2345.4 2400.07)"/><path d="M2802.463 2365.039v-21.341h7.705q2.149 0 3.681.701 1.547.688 2.364 1.963.83 1.26.83 3.007 0 1.218-.415 2.12t-1.189 1.518q-.773.602-1.862.974v.03q1.218.2 2.192.816.988.601 1.561 1.647.587 1.045.587 2.578 0 1.819-.845 3.165-.83 1.347-2.535 2.091-1.69.731-4.254.731zm2.578-2.292h5.242q2.42 0 3.71-.902 1.303-.917 1.303-2.693 0-1.189-.573-2.034-.558-.86-1.647-1.318-1.089-.472-2.65-.472h-5.385zm0-9.682h5.228q1.332 0 2.277-.43t1.447-1.217q.501-.803.501-1.891 0-1.633-1.117-2.578-1.117-.96-3.108-.96h-5.228zm41.142 11.974v-21.341h7.92q2.235 0 3.853.787 1.633.788 2.507 2.249.888 1.447.888 3.437 0 1.991-.946 3.452-.93 1.461-2.606 2.249t-3.896.788h-6.288v-2.292h6.431q1.475 0 2.535-.501 1.074-.516 1.647-1.461t.573-2.235q0-1.303-.587-2.234-.573-.93-1.647-1.432-1.06-.516-2.55-.516h-5.256v19.05zm12.418 0-5.156-9.597h2.921l5.243 9.597zm39.996.343q-2.822 0-5.013-1.418t-3.438-3.895q-1.246-2.493-1.246-5.687 0-3.222 1.246-5.7 1.246-2.492 3.438-3.91 2.191-1.418 5.013-1.418 2.836 0 5.013 1.418 2.191 1.418 3.437 3.91 1.246 2.478 1.246 5.7 0 3.194-1.246 5.687-1.246 2.477-3.437 3.895-2.177 1.418-5.013 1.418m0-2.406q1.933 0 3.552-.988 1.619-1.003 2.592-2.922t.974-4.684q0-2.778-.974-4.698-.974-1.933-2.592-2.921-1.618-1.003-3.552-1.003t-3.552 1.003q-1.619.988-2.593 2.921-.974 1.92-.974 4.698 0 2.765.974 4.684t2.593 2.922q1.618.988 3.552.988m39.853-4.039v-3.38q.745-.83 1.49-1.633l1.489-1.633q.76-.816 1.518-1.633l6.474-6.96h3.409l-9.11 9.71h-.128zm-1.748 6.102v-21.341h2.578v21.341zm13.077 0-7.834-10.957 1.59-2.034 9.295 12.99zm30.529 0v-21.341h13.879v2.291h-11.301v6.975h10.47v2.292h-10.47v7.491h11.3v2.292zm42.001 0v-21.341h7.92q2.235 0 3.854.787 1.632.788 2.506 2.249.888 1.447.888 3.437 0 1.991-.945 3.452-.931 1.461-2.607 2.249t-3.896.788h-6.288v-2.292h6.431q1.476 0 2.536-.501 1.074-.516 1.647-1.461t.573-2.235q0-1.303-.588-2.234-.573-.93-1.647-1.432-1.06-.516-2.55-.516h-5.256v19.05zm12.418 0-5.156-9.597h2.922l5.242 9.597zm31.13 0v-21.341h13.88v2.291h-11.302v6.975h10.47v2.292h-10.47v7.491h11.301v2.292zm48.59 0h-5.127v-2.292h4.955q2.65 0 4.383-1.017t2.578-2.907q.86-1.891.86-4.498 0-2.578-.845-4.44-.831-1.876-2.507-2.879-1.676-1.017-4.182-1.017h-5.357v-2.291h5.529q3.108 0 5.328 1.274 2.234 1.275 3.423 3.667 1.189 2.378 1.189 5.686 0 3.337-1.203 5.744-1.204 2.392-3.495 3.68-2.278 1.29-5.529 1.29m-4.01-21.341v21.34h-2.578v-21.34zm74.979 21.34v-21.34h7.706q2.148 0 3.68.701 1.547.688 2.364 1.963.83 1.26.83 3.007 0 1.218-.415 2.12t-1.189 1.518q-.773.602-1.862.974v.03q1.218.2 2.192.816.988.601 1.561 1.647.587 1.045.587 2.578 0 1.819-.845 3.165-.83 1.347-2.535 2.091-1.69.731-4.254.731zm2.578-2.291h5.242q2.42 0 3.71-.902 1.303-.917 1.303-2.693 0-1.189-.573-2.034-.558-.86-1.647-1.318-1.088-.472-2.65-.472h-5.385zm0-9.682h5.228q1.332 0 2.277-.43t1.447-1.217q.501-.803.501-1.891 0-1.633-1.117-2.578-1.117-.96-3.108-.96h-5.228zm47.158 11.974v-8.795l-7.85-12.546h2.98l4.282 6.903q.645 1.031 1.246 2.063l1.204 2.062h-1.103q.587-1.031 1.188-2.062.616-1.032 1.247-2.063l4.268-6.903h2.965l-7.85 12.546v8.795zm68.763-19.05v-2.291h16.471v2.291h-6.932v19.05h-2.579v-19.05zm44.307 19.05v-21.341h7.92q2.235 0 3.853.787 1.633.788 2.507 2.249.888 1.447.888 3.437 0 1.991-.946 3.452-.93 1.461-2.606 2.249t-3.896.788h-6.288v-2.292h6.431q1.475 0 2.535-.501 1.075-.516 1.648-1.461.572-.945.572-2.235 0-1.303-.587-2.234-.573-.93-1.647-1.432-1.06-.516-2.55-.516h-5.256v19.05zm12.418 0-5.156-9.597h2.921l5.243 9.597zm33.708-21.341v21.34h-2.578v-21.34zm37.432 21.684q-2.506 0-4.382-.988-1.862-.988-2.894-2.693-1.03-1.718-1.03-3.91v-14.093h2.577v13.893q0 1.561.688 2.778t1.976 1.92q1.29.687 3.065.687 1.79 0 3.066-.687 1.289-.702 1.976-1.92t.688-2.778v-13.893h2.578v14.093q0 2.192-1.032 3.91-1.03 1.705-2.893 2.693t-4.383.988m37.433-.343v-21.341h3.509l5.414 13.778q.186.458.444 1.132t.53 1.403.515 1.39q.244.644.387 1.06h-.587q.143-.416.372-1.06l.516-1.39q.272-.73.53-1.403.258-.674.43-1.132l5.328-13.778h3.523v21.34h-2.535v-13.85l.03-1.618q.028-.83.042-1.676.03-.845.043-1.647h.358q-.358 1.003-.702 1.948t-.658 1.776q-.301.83-.56 1.518-.257.673-.457 1.175l-4.956 12.375h-2.12l-4.984-12.375q-.2-.502-.473-1.175-.258-.687-.573-1.518l-.673-1.776q-.358-.945-.745-1.948h.487q.03.802.043 1.647.014.845.03 1.676.028.83.028 1.618.014.788.014 1.476v12.375zm50.15 0v-21.341h7.65q2.234 0 3.852.787 1.633.788 2.507 2.249.888 1.447.888 3.437 0 1.991-.917 3.452-.902 1.447-2.564 2.249-1.647.788-3.881.788h-6.245v-2.292h6.273q1.49 0 2.55-.501 1.074-.516 1.647-1.461.587-.945.587-2.235 0-1.303-.587-2.234-.573-.93-1.647-1.432-1.06-.516-2.55-.516h-4.984v19.05zm42.947 0v-21.341h2.579v9.266h11.372v-9.266h2.578v21.34h-2.578v-9.782h-11.372v9.783zm78.102 0v-21.341h7.92q2.235 0 3.853.787 1.633.788 2.507 2.249.888 1.447.888 3.437 0 1.991-.945 3.452-.931 1.461-2.607 2.249t-3.896.788h-6.288v-2.292h6.431q1.475 0 2.535-.501 1.075-.516 1.648-1.461.572-.945.572-2.235 0-1.303-.587-2.234-.573-.93-1.647-1.432-1.06-.516-2.55-.516h-5.256v19.05zm12.418 0-5.156-9.597h2.922l5.242 9.597zm31.13 0v-21.341h13.88v2.291h-11.302v6.975h10.47v2.292h-10.47v7.491h11.301v2.292zm40.168 0 7.878-21.341h2.922l7.791 21.34h-2.75l-4.483-12.861q-.444-1.275-1.002-2.908-.545-1.647-1.39-4.311h.745q-.845 2.664-1.404 4.311-.544 1.633-1.002 2.908l-4.612 12.862zm4.068-5.987v-2.292h10.456v2.292zm41.93 5.987v-21.341h2.578v19.049h10.283v2.292zm36.43-19.05v-2.291h16.47v2.291h-6.932v19.05h-2.578v-19.05zm50.322 19.05v-8.795l-7.849-12.546h2.98l4.282 6.903q.644 1.031 1.246 2.063l1.203 2.062h-1.103q.587-1.031 1.19-2.062.615-1.032 1.245-2.063l4.268-6.903h2.965l-7.849 12.546v8.795z" aria-label="BROKERED BY TRIUMPH REALTY" style="font-size:29.3333px;font-family:Inter;-inkscape-font-specification:Inter;letter-spacing:25px;fill:#6b7280;stroke-width:2;fill-opacity:1" transform="translate(-2345.4 -1599.93)"/></svg>