<svg xmlns="http://www.w3.org/2000/svg" width="787.586" height="715.927" viewBox="0 0 787.586 715.927"><defs><linearGradient id="a" x1=".854" x2=".146" y1="-.354" y2=".354" gradientTransform="matrix(590.68945 0 0 -590.68945 1759.05 1531.58)" gradientUnits="userSpaceOnUse" spreadMethod="pad"><stop offset="0" style="stop-color:#c28860;stop-opacity:1"/><stop offset=".101" style="stop-color:#e1a323;stop-opacity:1"/><stop offset=".185" style="stop-color:#d8985d;stop-opacity:1"/><stop offset=".386" style="stop-color:#e6b03f;stop-opacity:1"/><stop offset=".551" style="stop-color:#efcb95;stop-opacity:1"/><stop offset=".78" style="stop-color:#e0a944;stop-opacity:1"/><stop offset="1" style="stop-color:#ddab73;stop-opacity:1"/></linearGradient><linearGradient id="b" x1="0" x2="1" y1="0" y2="0" gradientTransform="matrix(14.01905 0 0 -14.01905 2035.383 1439.918)" gradientUnits="userSpaceOnUse" spreadMethod="pad"><stop offset="0" style="stop-opacity:1;stop-color:#583517"/><stop offset=".101" style="stop-opacity:1;stop-color:#e1a144"/><stop offset=".185" style="stop-opacity:1;stop-color:#a06719"/><stop offset=".386" style="stop-opacity:1;stop-color:#f0be68"/><stop offset=".551" style="stop-opacity:1;stop-color:#9b681a"/><stop offset=".78" style="stop-opacity:1;stop-color:#e0a853"/><stop offset="1" style="stop-opacity:1;stop-color:#513618"/></linearGradient><linearGradient id="c" x1="0" x2="1" y1="0" y2="0" gradientTransform="matrix(14.01905 0 0 -14.01905 2063.421 1439.918)" gradientUnits="userSpaceOnUse" spreadMethod="pad"><stop offset="0" style="stop-opacity:1;stop-color:#583517"/><stop offset=".101" style="stop-opacity:1;stop-color:#e1a144"/><stop offset=".185" style="stop-opacity:1;stop-color:#a06719"/><stop offset=".386" style="stop-opacity:1;stop-color:#f0be68"/><stop offset=".551" style="stop-opacity:1;stop-color:#9b681a"/><stop offset=".78" style="stop-opacity:1;stop-color:#e0a853"/><stop offset="1" style="stop-opacity:1;stop-color:#513618"/></linearGradient><linearGradient id="d" x1="0" x2="1" y1="0" y2="0" gradientTransform="matrix(14.01905 0 0 -14.01905 2035.383 1411.88)" gradientUnits="userSpaceOnUse" spreadMethod="pad"><stop offset="0" style="stop-opacity:1;stop-color:#583517"/><stop offset=".101" style="stop-opacity:1;stop-color:#e1a144"/><stop offset=".185" style="stop-opacity:1;stop-color:#a06719"/><stop offset=".386" style="stop-opacity:1;stop-color:#f0be68"/><stop offset=".551" style="stop-opacity:1;stop-color:#9b681a"/><stop offset=".78" style="stop-opacity:1;stop-color:#e0a853"/><stop offset="1" style="stop-opacity:1;stop-color:#513618"/></linearGradient><linearGradient id="e" x1="0" x2="1" y1="0" y2="0" gradientTransform="matrix(14.01905 0 0 -14.01905 2063.421 1411.88)" gradientUnits="userSpaceOnUse" spreadMethod="pad"><stop offset="0" style="stop-opacity:1;stop-color:#583517"/><stop offset=".101" style="stop-opacity:1;stop-color:#e1a144"/><stop offset=".185" style="stop-opacity:1;stop-color:#a06719"/><stop offset=".386" style="stop-opacity:1;stop-color:#f0be68"/><stop offset=".551" style="stop-opacity:1;stop-color:#9b681a"/><stop offset=".78" style="stop-opacity:1;stop-color:#e0a853"/><stop offset="1" style="stop-opacity:1;stop-color:#513618"/></linearGradient></defs><path d="M2062.266 1799.867c-1.853-.303-3.384-1.002-4.684-1.76a16 16 0 0 1-3.013-2.379c-1.586-1.596-2.576-3.075-3.417-4.464a37 37 0 0 1-2.048-3.998c-1.141-2.572-1.971-5.016-2.709-7.434-2.841-9.628-4.322-18.843-5.533-28.224-.282-2.384-.562-4.608-.732-7.31a273 273 0 0 1-.349-7.039 313 313 0 0 1-.195-14.036c.089-9.334.547-18.626 1.306-27.873 2.494-30.161 8.026-59.892 15.455-88.957a473 473 0 0 0-10.493-30.126c-12.918-33.343-29.8-65.201-49.533-95.21-19.633-30.093-42.145-58.384-66.848-84.663-24.647-26.344-51.461-50.73-79.979-73.015-14.238-11.176-28.939-21.779-44.032-31.823a753 753 0 0 0-22.902-14.692 728 728 0 0 0-23.51-13.757c65.4 31.806 125.336 75.136 177.233 126.692 25.828 25.917 49.576 54.017 70.541 84.188 20.832 30.243 38.853 62.578 52.918 96.716a434 434 0 0 1 3.813 9.503c4.498-15.427 9.372-30.7 14.416-45.87a624 624 0 0 1 19.556-51.681c14.655-33.831 32.336-66.561 54.373-96.451a357 357 0 0 1 8.274-10.902c-36.491 3.601-73.233 3.305-109.517-.525-36.259-3.862-72.243-10.681-106.87-21.776 17.525 4.793 35.385 8.179 53.298 10.931 17.916 2.748 35.935 4.745 53.992 5.88 36.1 2.265 72.373 1.526 108.066-3.297q4.669-.627 9.324-1.343a376 376 0 0 1 19.61-21.363c13.267-13.087 27.53-25.298 43.16-35.662 7.729-5.301 15.891-9.969 24.178-14.368 4.208-2.09 8.384-4.237 12.725-6.046 4.268-1.964 8.67-3.62 13.058-5.298 8.733-3.275 17.754-6.117 27.249-8.02 4.762-.927 9.657-1.62 14.87-1.672 2.606-.02 5.301.128 8.124.637 2.808.516 5.796 1.386 8.735 3.097 2.925 1.671 5.707 4.394 7.365 7.586 1.671 3.052 2.524 7.025 2.084 10.608-.398 3.599-1.727 6.642-3.23 9.167-1.526 2.531-3.269 4.654-5.075 6.563-3.625 3.805-7.515 6.837-11.471 9.616-3.961 2.765-8.014 5.229-12.11 7.536-4.086 2.301-8.266 4.443-12.337 6.472-4.074 1.989-8.237 4.14-12.444 6.003a359 359 0 0 1-25.558 10.635c-26.745 10.031-54.484 17.064-82.56 21.457a347 347 0 0 0-18.936 24.251c-5.216 7.194-10.084 14.652-14.847 22.171-4.656 7.592-9.242 15.232-13.517 23.062-8.66 15.598-16.384 31.735-23.438 48.162a606 606 0 0 0-18.804 50.292c-5.639 17.178-11.024 34.388-15.861 51.701a843 843 0 0 0-5.186 19.475c6.554 21.648 11.408 43.842 14.41 66.325 2.476 18.379 3.599 36.952 3.495 55.526-.113 4.661-.093 9.216-.411 14.088-.305 4.814-.828 9.675-1.738 14.557-1.775 9.73-5.099 19.69-11.003 28.543a33 33 0 0 1-2.696 3.644c-1.132 1.285-2.48 2.678-4.621 4.021-.549.333-1.17.66-1.811.953-.732.293-1.381.57-2.246.766-.955.259-2.049.395-3.159.395-.74 0-1.488-.061-2.205-.185m-3.179-102.994c-.763 8.854-1.231 17.713-1.35 26.542q-.082 6.622.132 13.206c.068 2.195.176 4.383.299 6.568.1 1.832.362 4.12.61 6.245 1.06 8.625 2.503 17.409 4.794 25.219a53 53 0 0 0 1.487 4.346c3.722-5.998 6.131-13.065 7.611-20.559.805-4.038 1.311-8.218 1.63-12.463.329-4.188.376-8.722.541-13.138.323-17.748-.522-35.537-2.673-53.191a391 391 0 0 0-5.668-34.311c-3.366 17.077-5.939 34.268-7.413 51.536m264.461-409.686c-3.875.109-8.006.74-12.136 1.634-8.288 1.826-16.614 4.591-24.816 7.858-16.307 6.438-31.887 14.719-46.351 24.736-14.552 9.888-27.882 21.573-40.322 34.125a358 358 0 0 0-4.45 4.681c23.125-4.953 45.805-11.715 67.626-20.601a348 348 0 0 0 24.459-10.953c7.929-3.96 16.114-8.111 23.636-12.503 3.776-2.221 7.443-4.559 10.883-7.06 3.427-2.496 6.663-5.176 9.246-8.011 2.595-2.777 4.385-5.935 4.449-7.82.064-.944-.099-1.606-.6-2.539-.484-.826-1.072-1.399-2.088-1.973-1.816-1.041-4.969-1.595-8.373-1.595-.385 0-.773.01-1.163.021" style="mix-blend-mode:normal;fill:url(#a);stroke:none" transform="matrix(1.33333 0 0 -1.33333 -2345.4 2400.07)"/><path d="M2035.384 1432.909h14.019v14.019h-14.019z" style="fill:url(#b);stroke:none" transform="matrix(1.33333 0 0 -1.33333 -2345.4 2400.07)"/><path d="M2063.422 1432.909h14.019v14.019h-14.019z" style="fill:url(#c);stroke:none" transform="matrix(1.33333 0 0 -1.33333 -2345.4 2400.07)"/><path d="M2035.384 1404.87h14.019v14.019h-14.019z" style="fill:url(#d);stroke:none" transform="matrix(1.33333 0 0 -1.33333 -2345.4 2400.07)"/><path d="M2063.422 1404.87h14.019v14.019h-14.019z" style="fill:url(#e);stroke:none" transform="matrix(1.33333 0 0 -1.33333 -2345.4 2400.07)"/></svg>